<svg width="512" height="512" version="1.1" xmlns="http://www.w3.org/2000/svg" desc="Created with imagetracer.js version 1.2.6" ><path fill="rgb(243,244,244)" stroke="rgb(243,244,244)" stroke-width="1" opacity="1" d="M 251.5 77 L 259.5 77 L 260.5 78 L 262.5 78 L 266.5 78 L 281.5 84 L 318 110 Q 316.9 112.7 319.5 112 L 336 123 Q 334.9 125.7 337.5 125 L 372.5 151 L 376 152 Q 374.9 154.7 377.5 154 L 416.5 182 L 428 192.5 L 437 208.5 L 439 218.5 L 439 228.5 L 435 244.5 L 432 250.5 L 431 257.5 L 422 281.5 L 408 327.5 L 406 330.5 L 406 333.5 L 396 361.5 L 395 368.5 L 393 371.5 L 385 398.5 L 375 415 L 367 420 Q 368.1 422.7 365.5 422 Q 357.5 428 345.5 430 L 343.5 430 L 166.5 430 Q 148.7 426.3 138 415.5 L 130 404.5 L 123 386.5 L 114 355.5 L 106 334.5 L 105 327.5 L 103 325.5 L 100 312.5 L 98 309.5 L 98 306.5 L 90 285.5 L 88 275.5 L 75 238.5 L 73 229.5 L 73 217.5 Q 75.6 214.6 75 208.5 L 79 199.5 L 82 196.5 L 82 194 Q 84.7 195.1 84 192.5 L 95.5 182 L 227.5 86 L 238.5 80 L 251.5 77 Z M 252 81 L 240 84 L 231 89 L 96 187 Q 80 197 77 219 L 77 229 L 80 241 L 132 400 L 139 411 L 151 420 L 160 424 L 170 426 L 344 426 L 356 423 L 369 415 L 380 400 L 435 229 L 434 213 L 427 198 L 413 184 L 279 87 Q 269 80 252 81 Z " /><path fill="rgb(243,244,244)" stroke="rgb(243,244,244)" stroke-width="1" opacity="1" d="M 252.5 195 L 250.5 198 L 252.5 195 Z " /><path fill="rgb(243,244,244)" stroke="rgb(243,244,244)" stroke-width="1" opacity="1" d="M 236.5 235 L 234.5 238 L 236.5 235 Z " /><path fill="rgb(243,244,244)" stroke="rgb(243,244,244)" stroke-width="1" opacity="1" d="M 191.5 240 L 194 240.5 L 191.5 241 L 191.5 240 Z " /><path fill="rgb(243,244,244)" stroke="rgb(243,244,244)" stroke-width="1" opacity="1" d="M 323.5 248 L 319.5 253 L 323.5 248 Z " /><path fill="rgb(243,244,244)" stroke="rgb(243,244,244)" stroke-width="1" opacity="1" d="M 317.5 253 L 314.5 257 L 317.5 253 Z " /><path fill="rgb(243,244,244)" stroke="rgb(243,244,244)" stroke-width="1" opacity="1" d="M 312.5 257 L 309.5 261 L 312.5 257 Z " /><path fill="rgb(243,244,244)" stroke="rgb(243,244,244)" stroke-width="1" opacity="1" d="M 307.5 261 L 304.5 265 L 307.5 261 Z " /><path fill="rgb(243,244,244)" stroke="rgb(243,244,244)" stroke-width="1" opacity="1" d="M 302.5 265 L 299.5 269 L 302.5 265 Z " /><path fill="rgb(243,244,244)" stroke="rgb(243,244,244)" stroke-width="1" opacity="1" d="M 297.5 269 L 294.5 273 L 297.5 269 Z " /><path fill="rgb(243,244,244)" stroke="rgb(243,244,244)" stroke-width="1" opacity="1" d="M 291.5 274 L 290.5 276 L 291.5 274 Z " /><path fill="rgb(243,244,244)" stroke="rgb(243,244,244)" stroke-width="1" opacity="1" d="M 289.5 279 L 290 281.5 L 289 281.5 L 289.5 279 Z " /><path fill="rgb(243,244,244)" stroke="rgb(243,244,244)" stroke-width="1" opacity="1" d="M 251.5 303 L 250.5 305 L 251.5 303 Z " /><path fill="rgb(243,244,244)" stroke="rgb(243,244,244)" stroke-width="1" opacity="1" d="M 248.5 305 L 247.5 307 L 248.5 305 Z " /><path fill="rgb(243,244,244)" stroke="rgb(243,244,244)" stroke-width="1" opacity="1" d="M 245.5 307 L 244.5 309 L 245.5 307 Z " /><path fill="rgb(243,244,244)" stroke="rgb(243,244,244)" stroke-width="1" opacity="1" d="M 242.5 309 L 241.5 311 L 242.5 309 Z " /><path fill="rgb(243,244,244)" stroke="rgb(243,244,244)" stroke-width="1" opacity="1" d="M 239.5 311 L 238.5 313 L 236.5 314 L 237.5 312 L 239.5 311 Z " /><path fill="rgb(243,244,244)" stroke="rgb(243,244,244)" stroke-width="1" opacity="1" d="M 234.5 314 L 233.5 316 L 234.5 314 Z " /><path fill="rgb(243,244,244)" stroke="rgb(243,244,244)" stroke-width="1" opacity="1" d="M 231.5 316 L 230.5 318 L 231.5 316 Z " /><path fill="rgb(243,244,244)" stroke="rgb(243,244,244)" stroke-width="1" opacity="1" d="M 228.5 318 L 227.5 320 L 228.5 318 Z " /><path fill="rgb(243,244,244)" stroke="rgb(243,244,244)" stroke-width="1" opacity="1" d="M 225.5 320 L 224.5 322 L 225.5 320 Z " /><path fill="rgb(243,244,244)" stroke="rgb(243,244,244)" stroke-width="1" opacity="1" d="M 222.5 322 L 221.5 324 L 222.5 322 Z " /><path fill="rgb(243,244,244)" stroke="rgb(243,244,244)" stroke-width="1" opacity="1" d="M 297.5 324 L 296.5 326 L 292 325.5 L 297.5 324 Z " /><path fill="rgb(23,112,197)" stroke="rgb(23,112,197)" stroke-width="1" opacity="1" d="M 248.5 122 L 265.5 122 L 276.5 126 L 377.5 199 L 387 208.5 L 394 222.5 L 395 236.5 L 393 247.5 L 389.5 254 L 382.5 249 Q 381.3 251.3 380 248.5 L 379.5 247 L 377.5 248 L 377.5 246 L 374 246 Q 375.1 243.3 372.5 244 Q 370.7 240.9 369 242.5 L 368.5 241 L 366.5 241 L 363.5 239 L 361.5 239 L 357 235.5 L 355.5 233 L 353 231.5 L 350 225 Q 347.3 226.1 348 223.5 L 345 221.5 L 350 230.5 L 352 237.5 L 353 248.5 L 351 259.5 L 348.5 264 L 342.5 260 L 341 260.5 L 339.5 258 Q 333.9 258.6 332.5 255 Q 330.8 257.8 329 253.5 Q 329.8 250.9 326.5 252 L 323.5 256 L 295.5 275 L 290.5 280 L 290 278.5 L 294.5 273 L 325 248.5 Q 325.9 241.6 321.5 240 L 316.5 239 L 299.5 239 L 290.5 233 L 288.5 233 L 285.5 231 L 282 230 L 281.5 228 Q 280 230.5 278.5 227 L 270 222 L 264 203.5 L 259.5 195 L 253.5 194 L 250 196.5 L 246 208 L 242.5 209 L 236.5 205 L 229.5 202 L 226.5 199 Q 225 201.5 223.5 198 L 220 196.5 L 220 195 L 216 195 Q 217.1 192.3 214.5 193 L 212 192 L 215.5 187 L 240 170.5 L 239.5 169 L 245 167.5 L 237.5 167 Q 236 169.5 230.5 168 L 229 167.5 L 228.5 169 L 227.5 167 Q 226 169.5 224.5 166 Q 215.5 164 210.5 158 L 207.5 158 L 202 155 L 201 152.5 L 231.5 129 L 248.5 122 Z " /><path fill="rgb(255,255,255)" stroke="rgb(255,255,255)" stroke-width="1" opacity="1" d="M 0 0 L 512 0 L 512 512 L 0 512 L 0 0 Z M 252 77 L 239 80 L 228 86 L 96 182 L 84 193 Q 85 195 82 194 L 82 197 L 79 200 L 75 209 Q 76 215 73 218 L 73 230 L 75 239 L 88 276 L 90 286 L 98 307 L 98 310 L 100 313 L 103 326 L 105 328 L 106 335 L 114 356 L 123 387 L 130 405 L 138 416 Q 149 426 167 430 L 344 430 L 346 430 Q 358 428 366 422 Q 368 423 367 420 L 375 415 L 385 399 L 393 372 L 395 369 L 396 362 L 406 334 L 406 331 L 408 328 L 422 282 L 431 258 L 432 251 L 435 245 L 439 229 L 439 219 L 437 209 L 428 193 L 417 182 L 378 154 Q 375 155 376 152 L 373 151 L 338 125 Q 335 126 336 123 L 320 112 Q 317 113 318 110 L 282 84 L 267 78 L 263 78 L 261 78 L 260 77 L 252 77 Z " /><path fill="rgb(22,158,165)" stroke="rgb(22,158,165)" stroke-width="1" opacity="1" d="M 152.5 186 L 151.5 188 L 152.5 186 Z " /><path fill="rgb(22,158,165)" stroke="rgb(22,158,165)" stroke-width="1" opacity="1" d="M 137.5 197 L 136.5 199 L 137.5 197 Z " /><path fill="rgb(22,158,165)" stroke="rgb(22,158,165)" stroke-width="1" opacity="1" d="M 133.5 200 L 134.5 202 Q 135.8 199.8 137 202.5 Q 136.1 205.5 140.5 204 L 147.5 209 L 148.5 208 L 151.5 211 L 155 211 Q 153.9 213.7 156.5 213 Q 158 216.5 159.5 214 L 163.5 218 L 164.5 217 L 166.5 218 Q 168 215.5 173.5 217 L 178.5 213 L 176.5 216 L 171 220.5 L 178.5 226 Q 180 223.5 181.5 227 L 184.5 229 Q 186 226.5 187.5 230 L 204 238.5 L 189.5 240 L 187 242.5 L 186 247.5 L 186 249.5 Q 187.4 255.6 192.5 258 L 221 280.5 L 212.5 310 L 212 306.5 L 213 305.5 L 209.5 302 L 201 299 L 200.5 297 L 199.5 298 Q 197.3 293.8 195 295.5 Q 195.8 292.9 192.5 294 L 179.5 287 L 178 287.5 L 178.5 286 L 176.5 285 L 174.5 285 L 169 284 L 168.5 282 L 168 284.5 L 179 319.5 L 178 319.5 L 171 299 L 169 298.5 L 169.5 297 L 166 296 L 166 294 L 162 294 Q 163.3 291 159.5 292 L 135.5 278 L 130 278 Q 131.3 275 127.5 276 L 126 276.5 L 116 245.5 L 116 228.5 Q 120.2 209.7 133.5 200 Z " /><path fill="rgb(22,158,165)" stroke="rgb(22,158,165)" stroke-width="1" opacity="1" d="M 219.5 238 L 222 238.5 L 219.5 239 L 219.5 238 Z " /><path fill="rgb(22,158,165)" stroke="rgb(22,158,165)" stroke-width="1" opacity="1" d="M 193.5 254 L 194.5 256 L 193.5 254 Z " /><path fill="rgb(22,158,165)" stroke="rgb(22,158,165)" stroke-width="1" opacity="1" d="M 198.5 258 L 199.5 260 L 198.5 258 Z " /><path fill="rgb(22,158,165)" stroke="rgb(22,158,165)" stroke-width="1" opacity="1" d="M 203.5 262 L 204.5 264 L 203.5 262 Z " /><path fill="rgb(22,158,165)" stroke="rgb(22,158,165)" stroke-width="1" opacity="1" d="M 208.5 266 L 209.5 268 L 208.5 266 Z " /><path fill="rgb(22,158,165)" stroke="rgb(22,158,165)" stroke-width="1" opacity="1" d="M 213.5 270 L 214.5 272 L 213.5 270 Z " /><path fill="rgb(22,158,165)" stroke="rgb(22,158,165)" stroke-width="1" opacity="1" d="M 218.5 274 L 219.5 276 L 218.5 274 Z " /><path fill="rgb(22,158,165)" stroke="rgb(22,158,165)" stroke-width="1" opacity="1" d="M 290.5 282 L 293.5 286 L 295 285.5 L 296.5 288 L 297.5 287 L 300.5 290 L 329.5 304 L 334.5 308 L 338.5 299 L 339 301.5 L 338 304.5 L 341 312 L 344 312 Q 342.9 314.7 345.5 314 L 368 324.5 L 356 362.5 Q 351.3 374.8 341.5 382 L 335.5 386 L 335 384 L 332.5 383 Q 331.3 385.3 330 382.5 Q 330.8 380.3 328.5 381 L 324.5 378 Q 323 380.5 321.5 377 L 294 363 Q 295.4 359.3 289.5 361 L 285 359.5 L 285.5 358 L 267.5 358 L 266.5 357 L 264.5 357 L 261.5 358 L 260.5 357 L 228 356.5 L 295.5 356 L 303 353.5 L 298.5 352 L 288.5 344 L 278.5 340 L 275.5 337 Q 265.3 334.2 258.5 328 L 257 328.5 Q 257.8 325.9 254.5 327 L 248.5 323 L 246 323 L 245.5 321 Q 244 323.5 242.5 320 L 239.5 319 L 221.5 330 L 214.5 331 L 210 327.5 L 209 323.5 L 211 322.5 L 213.5 326 L 219.5 326 Q 220.6 323.3 224 324 L 224.5 322 Q 225.8 324.3 227 321.5 L 227.5 320 L 229.5 320 L 231 319.5 L 230.5 318 L 232.5 319 L 233.5 316 L 235.5 317 L 249.5 308 L 256.5 306 L 290.5 328 L 296.5 329 L 300 325.5 L 301 318.5 L 290.5 282 Z M 304 352 L 304 353 L 306 353 L 304 352 Z " /><path fill="rgb(22,158,165)" stroke="rgb(22,158,165)" stroke-width="1" opacity="1" d="M 293.5 326 L 296 326.5 L 293.5 327 L 293.5 326 Z " /><path fill="rgb(107,172,214)" stroke="rgb(107,172,214)" stroke-width="1" opacity="1" d="M 251.5 81 Q 268.8 80.2 278.5 87 L 412.5 184 L 427 197.5 L 434 212.5 L 435 228.5 L 405 324 L 396.5 322 Q 390 315.5 380 312.5 L 381 310.5 L 379.5 308 Q 381.8 308.8 381 306.5 L 381 304.5 L 383 297.5 Q 380.5 296 384 294.5 L 385 287.5 L 397 248.5 L 398 230.5 Q 394.8 211.2 382.5 201 L 280.5 127 L 262.5 120 L 247.5 120 L 239.5 122 L 229.5 127 L 184.5 159 L 166 170 Q 167.1 172.7 164.5 172 L 150.5 182 L 146 183 L 145.5 185 Q 144.3 182.8 143 185.5 L 142.5 187 L 140.5 186 L 140.5 188 L 138.5 188 L 136 187.5 L 139 185.5 L 116.5 173 L 115 173.5 L 230.5 89 L 239.5 84 L 251.5 81 Z " /><path fill="rgb(107,172,214)" stroke="rgb(107,172,214)" stroke-width="1" opacity="1" d="M 231.5 128 L 230.5 130 L 231.5 128 Z " /><path fill="rgb(107,172,214)" stroke="rgb(107,172,214)" stroke-width="1" opacity="1" d="M 228.5 130 L 226.5 133 L 228.5 130 Z " /><path fill="rgb(107,172,214)" stroke="rgb(107,172,214)" stroke-width="1" opacity="1" d="M 224.5 133 L 223.5 135 L 224.5 133 Z " /><path fill="rgb(107,172,214)" stroke="rgb(107,172,214)" stroke-width="1" opacity="1" d="M 220.5 136 L 219.5 138 L 220.5 136 Z " /><path fill="rgb(107,172,214)" stroke="rgb(107,172,214)" stroke-width="1" opacity="1" d="M 216.5 139 L 215.5 141 L 216.5 139 Z " /><path fill="rgb(107,172,214)" stroke="rgb(107,172,214)" stroke-width="1" opacity="1" d="M 209.5 144 L 208.5 146 L 209.5 144 Z " /><path fill="rgb(107,172,214)" stroke="rgb(107,172,214)" stroke-width="1" opacity="1" d="M 205.5 147 L 204.5 149 L 205.5 147 Z " /><path fill="rgb(107,172,214)" stroke="rgb(107,172,214)" stroke-width="1" opacity="1" d="M 113.5 174 L 111.5 177 L 113.5 174 Z " /><path fill="rgb(107,172,214)" stroke="rgb(107,172,214)" stroke-width="1" opacity="1" d="M 109.5 177 L 107.5 180 L 104.5 182 L 106.5 179 L 109.5 177 Z " /><path fill="rgb(107,172,214)" stroke="rgb(107,172,214)" stroke-width="1" opacity="1" d="M 102.5 182 L 100.5 185 L 102.5 182 Z " /><path fill="rgb(107,172,214)" stroke="rgb(107,172,214)" stroke-width="1" opacity="1" d="M 98.5 185 L 97.5 187 L 98.5 185 Z " /><path fill="rgb(107,172,214)" stroke="rgb(107,172,214)" stroke-width="1" opacity="1" d="M 95.5 187 L 92.5 191 L 95.5 187 Z " /><path fill="rgb(107,172,214)" stroke="rgb(107,172,214)" stroke-width="1" opacity="1" d="M 88.5 194 L 85.5 198 L 88.5 194 Z " /><path fill="rgb(107,172,214)" stroke="rgb(107,172,214)" stroke-width="1" opacity="1" d="M 253 194 Q 259.4 192.8 261 197.5 L 274 233.5 L 277.5 238 L 310.5 239 L 323 241 L 325 244.5 L 325 248 L 323 248.5 Q 325.8 250.2 321.5 252 Q 320.3 249.8 319 252.5 L 317.5 255 Q 315.8 252.3 314 256.5 L 312.5 259 Q 310.7 256.3 309 260.5 L 307.5 263 Q 305.7 260.2 304 264.5 L 302.5 267 Q 300.8 264.3 299 268.5 L 297.5 271 Q 295.8 268.3 294 272.5 L 292.5 275 Q 291.3 272.8 290 275.5 L 290.5 277 L 289 277.5 L 289 279.5 L 291 283.5 L 291 285.5 L 298 309.5 L 298 314.5 L 300 316.5 L 300 318.5 L 301 320.5 L 298.5 325 L 296.5 325 L 290.5 325 L 263.5 306 L 258.5 303 L 253.5 302 L 236 313.5 L 235.5 315 Q 234.3 312.8 233 315.5 L 232.5 317 Q 231.3 314.8 230 317.5 L 229.5 319 Q 228.3 316.8 227 319.5 L 226.5 321 Q 225.3 318.8 224 321.5 L 223.5 323 Q 222.3 320.7 221 323.5 Q 221.8 325.8 219.5 325 L 216.5 326 L 212 323.5 L 211 316.5 L 214 310.5 L 214 308.5 L 215 306.5 Q 212.5 305 216 303.5 L 215 301.5 L 217 297.5 L 218 295.5 L 217 294.5 L 219 290.5 L 220 288.5 L 219 287.5 L 221 283.5 Q 222.8 274.8 217.5 273 L 187 248.5 L 186 245.5 L 188.5 241 L 190.5 240 L 193.5 241 L 202.5 239 L 204.5 239 L 224.5 239 Q 226 236.5 231.5 238 L 233 238.5 L 233.5 237 Q 235.2 239.8 237 235.5 L 236 233 L 238 232.5 L 237 231.5 Q 240.1 229.8 238.5 228 L 240 227.5 L 239 225 L 241 224.5 L 240 223.5 Q 243.1 221.8 241.5 220 L 243 219.5 L 242 217 L 244 216.5 L 244 214.5 Q 242.9 211.2 245.5 212 L 245 210.5 Q 244.3 208.3 246.5 209 L 247 206.5 Q 245.9 203.2 248.5 204 L 248 202.5 Q 247.3 200.3 249.5 201 L 249 199.5 Q 248.3 197.3 250.5 198 L 251.5 195 L 253 195.5 L 253 194 Z " /><path fill="rgb(107,172,214)" stroke="rgb(107,172,214)" stroke-width="1" opacity="1" d="M 84.5 199 L 84 200.5 L 80.5 208 L 80 206.5 L 84.5 199 Z " /><path fill="rgb(107,172,214)" stroke="rgb(107,172,214)" stroke-width="1" opacity="1" d="M 77.5 218 L 78 228.5 L 77 228.5 L 77.5 218 Z " /><path fill="rgb(107,172,214)" stroke="rgb(107,172,214)" stroke-width="1" opacity="1" d="M 395.5 232 L 396 239.5 L 395 239.5 L 395.5 232 Z " /><path fill="rgb(107,172,214)" stroke="rgb(107,172,214)" stroke-width="1" opacity="1" d="M 139.5 410 L 140.5 412 L 139.5 410 Z " /><path fill="rgb(107,172,214)" stroke="rgb(107,172,214)" stroke-width="1" opacity="1" d="M 372.5 410 L 368.5 415 L 372.5 410 Z " /><path fill="rgb(107,172,214)" stroke="rgb(107,172,214)" stroke-width="1" opacity="1" d="M 142.5 413 L 143.5 415 L 142.5 413 Z " /><path fill="rgb(107,172,214)" stroke="rgb(107,172,214)" stroke-width="1" opacity="1" d="M 338.5 425 L 344 425.5 L 338.5 426 L 338.5 425 Z " /><path fill="rgb(25,132,184)" stroke="rgb(25,132,184)" stroke-width="1" opacity="1" d="M 248.5 121 L 251 121.5 L 247.5 123 L 248.5 121 Z " /><path fill="rgb(25,132,184)" stroke="rgb(25,132,184)" stroke-width="1" opacity="1" d="M 252.5 121 L 264 121.5 L 252.5 122 L 252.5 121 Z " /><path fill="rgb(25,132,184)" stroke="rgb(25,132,184)" stroke-width="1" opacity="1" d="M 280.5 128 L 281.5 130 L 280.5 128 Z " /><path fill="rgb(25,132,184)" stroke="rgb(25,132,184)" stroke-width="1" opacity="1" d="M 229.5 130 L 228.5 132 L 229.5 130 Z " /><path fill="rgb(25,132,184)" stroke="rgb(25,132,184)" stroke-width="1" opacity="1" d="M 284.5 131 L 285.5 133 L 284.5 131 Z " /><path fill="rgb(25,132,184)" stroke="rgb(25,132,184)" stroke-width="1" opacity="1" d="M 225.5 133 L 224.5 135 L 225.5 133 Z " /><path fill="rgb(25,132,184)" stroke="rgb(25,132,184)" stroke-width="1" opacity="1" d="M 222.5 135 L 220.5 138 L 222.5 135 Z " /><path fill="rgb(25,132,184)" stroke="rgb(25,132,184)" stroke-width="1" opacity="1" d="M 291.5 136 L 292.5 138 L 291.5 136 Z " /><path fill="rgb(25,132,184)" stroke="rgb(25,132,184)" stroke-width="1" opacity="1" d="M 218.5 138 L 216.5 141 L 218.5 138 Z " /><path fill="rgb(25,132,184)" stroke="rgb(25,132,184)" stroke-width="1" opacity="1" d="M 295.5 139 L 300 142.5 L 297.5 141 L 295.5 139 Z " /><path fill="rgb(25,132,184)" stroke="rgb(25,132,184)" stroke-width="1" opacity="1" d="M 214.5 141 L 212.5 144 L 201 152.5 L 202 155 L 207.5 158 L 210.5 158 L 216.5 163 L 226.5 168 L 228 167.5 L 228.5 169 L 229.5 167 Q 231 169.5 236.5 168 Q 238.3 165.3 244.5 167 L 244.5 168 L 241 168.5 L 241.5 170 L 239.5 169 L 238.5 172 L 230.5 176 L 212 190.5 Q 211.3 192.8 213.5 192 L 216 193 L 216 195 L 220 195 L 220 196.5 L 225.5 200 L 226.5 199 L 229.5 202 L 231.5 202 L 238.5 207 L 239.5 206 L 243.5 208 L 246 208.5 L 235 237 L 232.5 238 L 204.5 239 L 185.5 228 Q 184 230.5 182.5 227 L 179.5 225 L 178.5 226 L 175.5 223 L 171.5 221 Q 170.3 223.3 169 220.5 Q 171.5 222.3 174 217.5 L 167.5 217 L 165.5 217 L 163.5 218 L 159.5 214 Q 158 216.5 156.5 213 Q 153.9 213.7 155 211 L 151.5 211 L 144.5 206 L 137 204 L 135.5 201 L 134 201.5 L 135.5 199 L 214.5 141 Z M 177 214 L 176 216 L 178 215 L 177 214 Z " /><path fill="rgb(25,132,184)" stroke="rgb(25,132,184)" stroke-width="1" opacity="1" d="M 302.5 144 L 303.5 146 L 302.5 144 Z " /><path fill="rgb(25,132,184)" stroke="rgb(25,132,184)" stroke-width="1" opacity="1" d="M 306.5 147 L 307.5 149 L 306.5 147 Z " /><path fill="rgb(25,132,184)" stroke="rgb(25,132,184)" stroke-width="1" opacity="1" d="M 313.5 152 L 314.5 154 L 313.5 152 Z " /><path fill="rgb(25,132,184)" stroke="rgb(25,132,184)" stroke-width="1" opacity="1" d="M 317.5 155 L 318.5 157 L 317.5 155 Z " /><path fill="rgb(25,132,184)" stroke="rgb(25,132,184)" stroke-width="1" opacity="1" d="M 328.5 163 L 329.5 165 L 328.5 163 Z " /><path fill="rgb(25,132,184)" stroke="rgb(25,132,184)" stroke-width="1" opacity="1" d="M 335.5 168 L 336.5 170 L 335.5 168 Z " /><path fill="rgb(25,132,184)" stroke="rgb(25,132,184)" stroke-width="1" opacity="1" d="M 339.5 171 L 340.5 173 L 339.5 171 Z " /><path fill="rgb(25,132,184)" stroke="rgb(25,132,184)" stroke-width="1" opacity="1" d="M 346.5 176 L 347.5 178 L 346.5 176 Z " /><path fill="rgb(25,132,184)" stroke="rgb(25,132,184)" stroke-width="1" opacity="1" d="M 350.5 179 L 351.5 181 L 350.5 179 Z " /><path fill="rgb(25,132,184)" stroke="rgb(25,132,184)" stroke-width="1" opacity="1" d="M 357.5 184 L 358.5 186 L 357.5 184 Z " /><path fill="rgb(25,132,184)" stroke="rgb(25,132,184)" stroke-width="1" opacity="1" d="M 361.5 187 L 362.5 189 L 361.5 187 Z " /><path fill="rgb(25,132,184)" stroke="rgb(25,132,184)" stroke-width="1" opacity="1" d="M 365.5 190 L 366.5 192 L 365.5 190 Z " /><path fill="rgb(25,132,184)" stroke="rgb(25,132,184)" stroke-width="1" opacity="1" d="M 368.5 192 L 369.5 194 L 368.5 192 Z " /><path fill="rgb(25,132,184)" stroke="rgb(25,132,184)" stroke-width="1" opacity="1" d="M 259.5 195 L 260.5 197 L 259.5 195 Z " /><path fill="rgb(25,132,184)" stroke="rgb(25,132,184)" stroke-width="1" opacity="1" d="M 372.5 195 L 373.5 197 L 372.5 195 Z " /><path fill="rgb(25,132,184)" stroke="rgb(25,132,184)" stroke-width="1" opacity="1" d="M 380.5 201 L 385.5 207 L 380.5 201 Z " /><path fill="rgb(25,132,184)" stroke="rgb(25,132,184)" stroke-width="1" opacity="1" d="M 387.5 209 L 388.5 211 L 387.5 209 Z " /><path fill="rgb(25,132,184)" stroke="rgb(25,132,184)" stroke-width="1" opacity="1" d="M 389.5 212 L 390.5 214 L 389.5 212 Z " /><path fill="rgb(25,132,184)" stroke="rgb(25,132,184)" stroke-width="1" opacity="1" d="M 341.5 217 L 348 225 Q 350.7 223.9 350 226.5 L 354.5 233 L 357 234.5 L 360.5 239 L 362.5 240 Q 364 237.5 365.5 241 L 367.5 242 L 369 241.5 L 369.5 243 Q 371 240.5 372.5 244 Q 375.1 243.3 374 246 L 377.5 246 L 377.5 248 L 379.5 247 L 381.5 250 L 382.5 249 L 385.5 252 L 388.5 253 L 391 252.5 L 391.5 251 L 392 252.5 L 367.5 324 L 351.5 316 L 344 314 Q 345.1 310.7 341 312 L 341 309.5 L 337.5 302 L 334.5 308 L 329.5 304 L 300.5 290 L 297.5 287 Q 296.3 289.3 295 286.5 L 294.5 285 L 293 285.5 L 290 280.5 L 295.5 275 L 325 254.5 L 326.5 252 Q 329.8 250.9 329 253.5 L 334.5 257 L 341 259.5 L 341.5 261 L 343.5 261 L 348.5 264 L 352 255.5 L 353 244.5 L 350 230.5 L 341.5 217 Z M 339 299 L 338 302 L 339 302 L 339 299 Z " /><path fill="rgb(25,132,184)" stroke="rgb(25,132,184)" stroke-width="1" opacity="1" d="M 270.5 222 L 280.5 229 L 282 228.5 Q 281.2 231.1 284.5 230 L 287 231 Q 285.9 233.7 288.5 233 L 289.5 232 L 292.5 235 L 298.5 238 L 300 237.5 L 298.5 239 L 288.5 239 L 287.5 238 L 277.5 238 L 275 235.5 L 270.5 222 Z " /><path fill="rgb(25,132,184)" stroke="rgb(25,132,184)" stroke-width="1" opacity="1" d="M 394.5 224 L 395 226.5 L 394 226.5 L 394.5 224 Z " /><path fill="rgb(25,132,184)" stroke="rgb(25,132,184)" stroke-width="1" opacity="1" d="M 395.5 229 L 396 231.5 L 395 231.5 L 395.5 229 Z " /><path fill="rgb(25,132,184)" stroke="rgb(25,132,184)" stroke-width="1" opacity="1" d="M 394.5 237 L 395 242.5 L 394 242.5 L 394.5 237 Z " /><path fill="rgb(25,132,184)" stroke="rgb(25,132,184)" stroke-width="1" opacity="1" d="M 311.5 239 L 317 239.5 L 311.5 240 L 311.5 239 Z " /><path fill="rgb(25,132,184)" stroke="rgb(25,132,184)" stroke-width="1" opacity="1" d="M 393.5 244 L 394 246.5 L 393 246.5 L 393.5 244 Z " /><path fill="rgb(25,132,184)" stroke="rgb(25,132,184)" stroke-width="1" opacity="1" d="M 186.5 249 L 192 253.5 Q 191.3 255.8 193.5 255 L 197 257.5 Q 196.3 259.8 198.5 259 L 221 277.5 L 220.5 280 L 187 252.5 L 186.5 249 Z " /><path fill="rgb(25,132,184)" stroke="rgb(25,132,184)" stroke-width="1" opacity="1" d="M 253.5 303 L 259.5 304 L 291.5 326 L 295.5 327 L 299.5 324 L 300 325.5 Q 299 330 292.5 329 L 262.5 309 L 254.5 306 L 228.5 321 L 229.5 319 L 253.5 303 Z " /><path fill="rgb(25,132,184)" stroke="rgb(25,132,184)" stroke-width="1" opacity="1" d="M 226.5 321 L 225.5 323 L 226.5 321 Z " /><path fill="rgb(88,191,187)" stroke="rgb(88,191,187)" stroke-width="1" opacity="1" d="M 247.5 120 L 263 120.5 L 248.5 121 L 231.5 128 L 133.5 200 L 125 208.5 Q 118.4 216.4 116 228.5 L 116 245.5 L 154 363.5 Q 159.4 376.1 169.5 384 Q 176.8 389.7 187.5 392 L 317.5 392 L 327.5 390 L 338.5 385 L 349 375.5 L 355 365.5 L 361 344.5 L 394 248.5 L 396 239.5 L 396 229.5 L 391 213.5 L 380.5 201 L 298 140.5 L 300.5 142 L 373.5 194 L 386 204.5 Q 393.2 212.3 397 223.5 L 398 243.5 L 385 287.5 L 385 291.5 L 382 296.5 L 382 298.5 L 380 305.5 L 381 308 L 379 308.5 L 381 311.5 L 380.5 313 Q 390.4 315.6 396.5 322 L 399.5 322 L 404 324.5 L 380 398.5 Q 375.1 410.1 365.5 417 L 351.5 424 L 336.5 426 L 334.5 425 L 330.5 426 L 328.5 426 L 170.5 426 L 154.5 422 L 141 413 L 131 396.5 L 105 316.5 L 105 313.5 L 94 282.5 L 94 279.5 L 81 242.5 L 78 231.5 L 78 214.5 Q 81.8 199.8 91.5 191 L 116.5 173 L 139 185.5 L 136 187.5 L 138.5 188 L 141.5 186 L 143 186.5 L 144.5 184 L 146 184.5 Q 145.2 181.9 148.5 183 L 160.5 174 L 166 172 Q 164.9 169.3 167.5 170 L 229.5 127 L 239.5 122 L 247.5 120 Z " /><path fill="rgb(88,191,187)" stroke="rgb(88,191,187)" stroke-width="1" opacity="1" d="M 264.5 121 L 268 122.5 L 266.5 122 Q 263.5 122.5 264.5 121 Z " /><path fill="rgb(88,191,187)" stroke="rgb(88,191,187)" stroke-width="1" opacity="1" d="M 276.5 125 L 297 139.5 L 295.5 139 L 277.5 127 L 276.5 125 Z " /><path fill="rgb(88,191,187)" stroke="rgb(88,191,187)" stroke-width="1" opacity="1" d="M 222.5 238 L 225 238.5 L 222.5 239 L 222.5 238 Z " /><path fill="rgb(88,191,187)" stroke="rgb(88,191,187)" stroke-width="1" opacity="1" d="M 197.5 239 L 202 239.5 L 197.5 240 L 197.5 239 Z " /><path fill="rgb(88,191,187)" stroke="rgb(88,191,187)" stroke-width="1" opacity="1" d="M 187.5 249 L 188.5 251 L 187.5 249 Z " /><path fill="rgb(88,191,187)" stroke="rgb(88,191,187)" stroke-width="1" opacity="1" d="M 211.5 322 L 213 324.5 L 211 323.5 L 211.5 322 Z " /><path fill="rgb(88,191,187)" stroke="rgb(88,191,187)" stroke-width="1" opacity="1" d="M 325.5 335 L 324.5 337 L 325.5 335 Z " /><path fill="rgb(88,191,187)" stroke="rgb(88,191,187)" stroke-width="1" opacity="1" d="M 323.5 338 L 321.5 341 L 323.5 338 Z " /><path fill="rgb(88,191,187)" stroke="rgb(88,191,187)" stroke-width="1" opacity="1" d="M 316.5 345 L 315.5 347 L 316.5 345 Z " /><path fill="rgb(26,182,154)" stroke="rgb(26,182,154)" stroke-width="1" opacity="1" d="M 127 276 Q 131.3 275 130.5 278 L 135.5 278 L 140.5 282 Q 151.7 285.3 159.5 292 L 162 292 L 162 294 L 166 294 Q 164.9 296.7 167.5 296 L 170 297.5 L 169.5 299 Q 171.8 298.3 171 300.5 L 176.5 314 L 177 310.5 L 168 282.5 L 169 282.5 Q 168.1 285.5 172.5 284 L 175.5 286 L 177.5 286 L 192.5 294 L 195 294 L 195.5 296 L 196.5 295 Q 198.7 299.3 201 297.5 Q 200.3 299.8 202.5 299 L 209.5 302 L 213 305.5 L 212 309.5 L 212 311.5 L 211 313.5 L 211 315.5 L 210 317.5 L 210 319.5 L 211 321.5 L 209 324.5 L 212.5 330 L 218.5 331 L 239.5 319 L 244.5 322 L 246 321.5 Q 245.2 324.1 248.5 323 Q 251.2 327.6 257 327 L 257.5 329 Q 259 326.5 260.5 330 L 288.5 344 L 298.5 352 L 302.5 353 L 311.5 348 L 309.5 351 L 295.5 356 L 228 356.5 L 260.5 357 L 261.5 358 L 264.5 357 L 267.5 358 L 286 358.5 L 285.5 360 L 294 361 Q 292.9 363.7 295.5 363 L 312.5 373 L 318.5 375 L 323.5 379 Q 325 376.5 326.5 380 L 330 381 L 331.5 384 L 333.5 384 Q 336.5 383.2 335 387 L 327.5 390 L 317.5 392 L 187.5 392 Q 170.1 387.9 161 375.5 L 154 363.5 L 127 276 Z M 178 314 L 177 317 L 178 317 L 178 314 Z M 179 317 L 178 320 L 179 320 L 179 317 Z " /><path fill="rgb(26,182,154)" stroke="rgb(26,182,154)" stroke-width="1" opacity="1" d="M 320.5 341 L 317.5 345 L 320.5 341 Z " /><path fill="rgb(26,182,154)" stroke="rgb(26,182,154)" stroke-width="1" opacity="1" d="M 348.5 375 L 342.5 382 L 348.5 375 Z " /><path fill="rgb(26,182,154)" stroke="rgb(26,182,154)" stroke-width="1" opacity="1" d="M 340.5 382 L 338.5 385 L 336.5 386 L 337.5 384 L 340.5 382 Z " /></svg>